<svg width="350" height="164" viewBox="0 0 350 164" fill="none" xmlns="http://www.w3.org/2000/svg">
<path d="M116.069 2.08289C107.366 5.22326 101.994 16.8102 101.994 23.3075C101.994 26.6644 102.961 29.1551 104.358 30.8877C103.498 30.4545 102.746 30.0214 102.102 29.5882L100.383 28.3971V30.4545V56.3356H92.4319V42.6912V38.3596L90.498 42.1497C85.5557 51.5709 76.5307 56.9853 65.8941 56.9853C62.7783 56.9853 59.8774 56.4438 57.4063 55.2527C57.9435 55.2527 58.3733 55.361 58.9105 55.361C75.7786 55.361 89.9608 35.4358 89.9608 22.8743C89.9608 19.3008 89.4236 16.377 88.3492 13.8864C89.2087 14.861 89.9608 15.9438 90.6054 17.0267L92.6468 20.2754V16.377V4.57353L98.6635 9.44652L99.4156 10.0963L100.06 9.33823C103.713 5.11497 109.837 2.40775 116.069 2.08289ZM62.2411 3.16578C66.7536 3.16578 70.9438 3.81551 74.8117 5.11497C73.3075 4.8984 71.8033 4.79011 70.0843 4.79011C63.9602 4.79011 56.5468 7.06417 50.3152 10.9626L49.778 11.2874V11.9372V27.8556C49.778 30.238 52.6789 33.7032 54.9352 35.5441C51.7119 39.3342 49.9929 43.3409 49.9929 47.131C49.9929 47.9973 50.1003 48.8636 50.2078 49.6217L49.5631 50.1631L41.9349 56.2273V13.3449V12.8035L41.5051 12.4786L40.2158 11.3957L49.9929 3.49064V7.7139V10.3128L51.7119 8.58021L56.8691 3.49064C58.803 3.27406 60.6295 3.16578 62.2411 3.16578ZM266.537 3.49064H267.023L266.915 3.9238L267.238 4.35695L271.213 10.6377V13.2366V56.4438H263.262V19.9505V13.8864L261.436 18.7594V18.6511C261.436 13.6698 258.535 7.17246 253.808 3.49064H262.081H263.155H266.537ZM165.062 3.38235C183.327 3.38235 198.153 15.2941 198.153 29.9131C198.153 34.6778 196.542 39.2259 193.748 43.1243C194.5 41.1751 194.93 39.1176 194.93 36.8436C194.93 21.25 175.376 5.43984 156.252 5.43984C154.318 5.43984 152.384 5.65642 150.665 5.98128C155.07 4.35695 160.012 3.38235 165.062 3.38235ZM232.32 3.49064C234.898 11.3957 237.477 19.4091 239.948 27.3142C242.634 35.6524 245.32 43.8824 248.006 52.2206L248.543 53.8449L248.651 54.1698L249.403 56.4438H247.146H244.031L246.502 58.393C249.94 61.1003 251.874 64.8904 251.874 68.7888C251.874 77.5602 242.741 84.9238 231.782 85.3569C240.485 82.2166 245.857 70.6297 245.857 64.1323C245.857 61.4251 245.105 58.8262 243.708 56.877L243.386 56.4438H242.849H241.452L241.13 55.361L240.485 53.5201L231.03 24.1738L230.493 22.3329L230.386 22.008L224.476 3.49064H232.32ZM201.914 3.49064L217.6 52.3289L218.567 55.361L218.889 56.4438L219.406 58.278L220.609 57.635C223.939 55.5775 228.022 54.3864 231.997 54.2781C223.295 57.4184 218.03 69.0053 218.03 75.5027C218.03 78.8596 218.997 81.3503 220.394 83.0829C219.534 82.6497 218.782 82.2166 218.137 81.7834L216.418 80.5922V82.6497V108.531H214.807H212.873L213.947 110.155L216.848 114.703V117.302V160.509H208.897V159.535L207.393 160.076C204.492 161.159 201.377 161.809 198.261 161.809C194.5 161.809 190.74 160.943 187.517 159.426C188.269 159.535 188.914 159.643 189.666 159.643C198.261 159.643 205.674 153.904 208.468 151.413L208.79 151.088V150.547V111.996V111.455L208.36 111.13L203.326 107.015C203.326 107.015 205.345 105.581 206.641 104.275C207.937 102.968 208.253 101.513 208.253 100.815V100.775V96.0775V95.9692V95.861C207.393 92.1791 205.352 89.1471 203.525 86.9813V65.6484V65.1069L203.096 64.7821L201.592 63.5909L207.823 58.6096L208.253 58.2848L209.327 57.4184L209.972 56.877L210.724 56.3356L210.509 55.5775L194.071 3.49064H201.914ZM127.35 4.46524C131.755 6.7393 134.871 10.4211 135.623 14.7527L136.053 17.0267L136.375 16.5936C135.623 18.4345 135.193 20.6003 135.193 22.766C135.193 38.3596 154.747 54.1698 173.872 54.1698C175.806 54.1698 177.74 53.9532 179.459 53.6283C178.707 53.9532 177.955 54.1698 177.203 54.3864L176.45 54.6029V55.361V75.8275C173.335 77.2353 171.401 80.0508 171.401 83.6243C171.401 94.1283 186.55 107.015 198.798 107.015C199.443 107.015 200.087 107.015 200.732 106.906C197.509 108.422 193.856 109.18 190.095 109.18C186.98 109.18 184.079 108.639 181.285 107.664L179.889 107.123V108.639V125.424V126.507V152.279C179.889 152.713 179.996 153.146 180.103 153.579L179.674 154.012L171.938 160.184V154.337V151.846L170.219 153.471C170.649 152.496 170.864 151.413 170.864 150.33C170.864 146.973 169.144 143.4 165.814 139.718H165.921L164.632 138.418C159.045 132.787 148.838 127.048 138.846 127.048C137.987 127.048 137.127 127.048 136.375 127.156C140.136 125.64 144.433 124.774 149.053 124.774C157.326 124.774 165.277 127.806 170.219 132.787L172.045 134.628V132.029V110.913V107.989L170.111 110.263L164.525 116.977C160.872 111.13 145.293 108.639 138.846 108.639C138.416 108.639 137.987 108.639 137.557 108.639C139.706 107.881 142.069 107.34 144.433 107.123L145.508 107.015H146.152C146.367 107.015 146.582 107.015 146.797 107.015H146.904H147.871V105.932V63.0495L155.392 56.9853L155.929 56.5521V56.6604V105.932V107.123H156.935L171.831 107.17H173.442H176.665H179.351L176.88 105.607C171.616 102.142 168.607 96.7273 168.607 91.2045V57.4184V56.2273L167.425 56.3356C166.566 56.3356 165.921 56.4438 165.169 56.4438C162.483 56.4438 159.797 56.2273 157.111 55.6858L156.037 55.4692L154.962 55.1444C141.317 51.5709 132.077 41.5 132.077 30.0214C132.077 29.5882 132.077 29.2634 132.077 28.8302L132.185 26.3396L130.251 27.9639C126.383 31.3209 121.119 33.2701 115.747 33.4866C124.449 30.3463 129.821 18.7594 129.821 12.262C129.821 9.33823 128.962 6.52273 127.35 4.46524ZM310.107 4.57353V56.3356H302.156V54.9278V11.0709L310.107 4.57353ZM116.284 44.3155C117.68 44.9652 119.292 45.2901 120.904 45.2901H124.342L132.937 56.3356H125.631C122.408 52.1123 119.292 48.1056 116.284 44.3155ZM112.201 55.361L116.821 62.508V65.1069V106.365V107.448V108.314H111.341H110.267H102.316V107.556V106.473V65.6484V65.1069L101.887 64.7821L100.383 63.4826L108.441 56.9853L108.87 56.6604V56.2273V55.4692H110.16H111.449H112.201V55.361ZM232.32 96.2941C233.716 96.9438 235.328 97.2687 236.939 97.2687H240.378L248.973 108.314H241.667C238.444 104.091 235.328 100.084 232.32 96.2941ZM71.5884 106.04C62.8858 109.18 57.6212 120.767 57.6212 127.265C57.6212 130.622 58.5881 133.112 59.9849 134.845C59.1253 134.412 58.3733 133.979 57.7286 133.545L56.0096 132.354V134.412V160.293H48.059V141.017V138.635V138.418V129.972V129.864V129.755C45.1581 118.493 32.2652 108.639 20.6616 108.639C19.9095 108.639 19.2649 108.639 18.6203 108.747C21.8435 107.231 25.6039 106.473 29.4718 106.473C36.3479 106.473 42.1497 108.639 46.2325 112.754L48.059 114.595V111.996V108.639L54.0756 113.512L54.8277 114.162L55.4724 113.404C59.3402 109.072 65.3569 106.365 71.5884 106.04ZM287.651 106.365C294.957 106.365 302.263 108.422 308.065 112.321L309.677 113.404V111.455V107.664H317.627V125.749V126.832V152.604C317.627 153.037 317.735 153.471 317.842 153.904L317.412 154.337L309.677 160.509V156.503V155.636V154.987V122.717V120.443L308.28 121.634C302.048 115.245 291.304 108.747 278.841 108.747C276.585 108.747 274.436 108.964 272.395 109.505C276.907 107.448 282.172 106.365 287.651 106.365ZM348.033 107.556V112.429L341.909 107.556H348.033ZM126.813 107.556V112.429L120.689 107.556H126.813ZM96.4072 107.556V125.64V126.723V152.496C96.4072 152.929 96.5147 153.362 96.6221 153.795L96.1923 154.229L89.4236 159.643L88.5641 160.293H88.4566H87.3822H81.2581C78.0349 156.07 74.9191 152.063 71.9108 148.273C73.3075 148.922 74.9191 149.247 76.5307 149.247H79.9688L86.5227 157.694L88.4566 160.184V157.044V131.921V129.43L86.6301 131.163C82.7623 134.953 77.1754 137.119 71.3736 137.336C80.0763 134.195 85.4483 122.608 85.4483 116.111C85.4483 113.295 84.6962 110.48 82.9772 108.422C84.2664 109.072 85.5557 109.938 86.6301 110.913L88.4566 112.537V110.155V107.556H96.4072ZM2.07441 108.531L9.59525 114.595L10.4548 115.245L10.5622 115.136C10.3473 116.111 10.2399 117.086 10.2399 118.277C10.2399 124.557 14.0003 132.029 19.5872 136.794C21.736 138.635 29.5792 144.483 38.2819 144.483C39.1414 144.483 39.8935 144.374 40.6456 144.374C37.4224 145.89 33.6619 146.757 29.4718 146.757C22.4881 146.757 15.7194 143.941 11.9589 139.501L10.025 137.227V140.151V160.401H2.07441V108.531ZM255.849 108.531V121.309V125.316L257.89 121.85C258.213 121.309 258.535 120.767 258.857 120.334C258.105 122.283 257.676 124.341 257.676 126.615C257.676 142.75 277.23 159.102 296.354 159.102C298.503 159.102 300.544 158.885 302.478 158.452C297.858 160.401 292.701 161.484 287.651 161.484C274.866 161.484 263.477 155.528 257.89 145.999L255.849 142.533V146.54V160.401H247.898V158.993V115.028L255.849 108.531ZM127.35 114.811C127.135 115.57 126.92 116.436 126.92 117.41C126.92 121.742 129.714 125.64 131.97 128.239L132.077 128.348L132.615 128.997L133.152 129.539C138.524 134.953 148.946 140.801 158.938 140.801C159.797 140.801 160.657 140.801 161.409 140.693C157.541 142.209 153.243 143.075 148.731 143.075C134.441 143.075 122.838 134.845 122.838 124.774C123.052 121.201 124.557 117.735 127.35 114.811ZM340.405 126.832V131.705L334.496 126.832H340.405ZM202.559 126.832V131.705L196.649 126.832H202.559ZM119.185 126.832V131.705L113.275 126.832H119.185ZM132.077 143.833C132.077 146.973 133.259 149.897 135.408 152.279C139.598 157.044 147.441 159.751 156.896 159.751C157.648 159.751 158.293 159.751 159.045 159.643C155.177 160.726 150.772 161.376 146.045 161.376C138.631 161.376 132.615 159.86 128.21 156.828L126.491 155.636V157.694V158.668C123.052 160.509 118.97 161.484 114.887 161.484C111.127 161.484 107.366 160.618 104.143 159.102C104.895 159.21 105.54 159.318 106.292 159.318C113.383 159.318 119.722 155.311 122.838 153.037L123.59 152.388L123.052 151.521C122.408 150.438 121.763 149.247 121.333 148.056L132.077 143.833ZM347.711 149.897V158.777C344.273 160.618 340.19 161.592 336.107 161.592C332.347 161.592 328.586 160.726 325.363 159.21C326.115 159.318 326.76 159.426 327.512 159.426C335.033 159.426 342.661 154.878 347.711 149.897ZM117.143 1C110.052 1 103.283 3.9238 99.2007 8.58021L91.465 2.29947V16.377C86.2004 7.82219 75.4563 2.08289 62.2411 2.08289C60.3072 2.08289 58.3733 2.19118 56.4393 2.51604L51.0673 7.82219V2.40775H49.778L38.3893 11.3957L40.753 13.2366V57.4184H42.0423L50.2078 50.9211C53.6459 55.4692 59.2328 58.0682 65.7867 58.0682C78.2498 58.0682 86.9525 51.1377 91.3575 42.6912V57.5267H101.457V30.4545C102.531 31.2126 103.821 31.9706 105.217 32.512C111.986 40.6337 118.647 48.9719 124.986 57.4184H135.086L124.772 44.2072H120.796C117.573 44.2072 115.102 42.9078 113.275 40.8503L106.936 33.1618C109.408 34.0281 111.879 34.4612 114.672 34.4612C120.904 34.4612 126.705 32.1872 130.788 28.6136C130.788 29.0468 130.788 29.4799 130.788 29.9131C130.788 42.1497 140.78 52.5455 154.533 56.119L146.689 62.508V105.824C146.475 105.824 146.26 105.824 145.937 105.824L112.738 54.2781H111.234H109.945H107.581V56.2273L98.7709 63.4826L101.242 65.5401V106.365H87.3822V110.047C83.7292 106.906 78.5721 104.957 72.6629 104.957C65.5718 104.957 58.803 107.881 54.7203 112.537L46.9846 106.257V111.888C43.0093 107.881 37.1 105.282 29.4718 105.282C21.736 105.282 14.4301 108.531 10.2399 113.729L1 106.257V161.376H11.0994V140.043C15.1822 144.916 22.2732 147.731 29.4718 147.731C37.1 147.731 43.0093 145.132 46.9846 141.126V161.484H57.084V134.52C58.1584 135.278 59.4477 136.036 60.8444 136.578C67.6132 144.699 74.2745 153.037 80.6135 161.484H87.2748H88.8864L90.0682 160.509L96.837 155.095C101.027 159.751 107.796 162.783 114.887 162.783C119.4 162.783 123.912 161.592 127.565 159.535V157.91C132.077 161.051 138.309 162.675 146.045 162.675C156.359 162.675 165.492 159.751 170.756 154.662V161.809H172.045L180.211 155.203C184.401 159.86 191.17 162.892 198.261 162.892C201.592 162.892 204.815 162.242 207.823 161.159V161.701H217.922V117.41L246.394 161.701H256.816V146.757C262.295 156.178 273.684 162.783 287.544 162.783C295.28 162.783 302.586 160.618 308.495 156.719V161.917H309.784L317.95 155.311C322.14 159.968 328.909 163 336 163C340.512 163 345.025 161.809 348.678 159.751V147.19C344.273 152.388 335.785 158.344 327.404 158.344C323.644 158.344 318.594 156.07 318.594 152.496V126.723H332.562L341.372 133.87V125.64H318.594V107.556H340.082L349 114.703V106.473H308.495V111.346C302.586 107.448 295.28 105.282 287.544 105.282C273.792 105.282 262.295 111.996 256.816 121.309V106.257L246.717 114.487V158.885L214.807 109.397H217.493V82.4331C218.567 83.1912 219.856 83.9492 221.253 84.4906C228.022 92.6123 234.683 100.951 241.022 109.397H251.122L240.807 96.1858H236.832C233.609 96.1858 231.138 94.8864 229.311 92.8289L222.972 85.1404C225.443 86.0067 227.914 86.4398 230.708 86.4398C242.526 86.4398 252.733 78.4265 252.733 68.7888C252.733 64.3489 250.584 60.3422 246.931 57.5267H250.692L249.51 53.8449L261.973 19.9505V57.5267H272.073V13.1283L300.759 57.4184H311.181V2.29947L301.081 10.5294V54.9278L268.097 3.70722L268.634 2.40775H267.238H262.188H249.94C256.386 4.8984 260.469 13.1283 260.469 18.6511C260.469 19.5174 260.362 20.2754 260.039 21.1417L249.08 51.8957C243.708 35.3275 238.444 18.8676 233.179 2.40775H223.08L229.419 22.3329L218.782 52.004L202.773 2.40775H192.674L209.864 55.9024L209.65 56.0107L207.501 57.7433L200.195 63.5909L202.773 65.6484V87.1979C204.922 89.6885 206.749 92.7206 207.501 95.861V100.734C207.286 103.379 203.525 106.148 198.798 106.148C186.55 106.148 172.475 93.4786 172.475 83.8409C172.475 80.9171 173.979 77.9933 177.525 76.6938V55.5775C190.31 51.5709 199.335 41.6083 199.335 29.9131C199.335 14.6444 183.971 2.29947 165.169 2.29947C153.351 2.29947 142.822 7.17246 136.697 14.5361C135.301 6.84759 127.135 1 117.143 1ZM111.234 33.0535C105.002 33.0535 103.069 27.3142 103.069 23.3075C103.069 16.1604 109.945 2.40775 120.474 2.40775C126.705 2.40775 128.639 8.14706 128.639 12.1537C128.747 19.1925 121.871 33.0535 111.234 33.0535ZM58.9105 54.2781C52.8938 54.2781 51.0673 51.3543 51.0673 47.131C51.0673 42.7995 53.431 38.7928 56.5468 35.3275C54.5054 34.0281 50.8524 30.0214 50.8524 27.8556V11.9372C56.117 8.6885 63.3155 5.98128 70.0843 5.98128C83.5144 5.98128 88.7789 12.262 88.7789 22.8743C88.7789 34.5695 75.3489 54.2781 58.9105 54.2781ZM173.872 53.1952C155.177 53.1952 136.268 37.8182 136.268 22.8743C136.268 13.2366 144.433 6.63102 156.252 6.63102C174.946 6.63102 193.856 22.008 193.856 36.9519C193.856 46.5896 185.69 53.1952 173.872 53.1952ZM220.179 56.5521L219.319 53.8449L230.063 24.4987L239.518 53.8449C237.477 53.3035 235.435 52.9786 233.179 52.9786C228.452 52.9786 223.939 54.2781 220.179 56.5521ZM227.27 85.0321C221.038 85.0321 219.104 79.2928 219.104 75.2861C219.104 68.139 225.981 54.3864 236.51 54.3864C237.799 54.3864 238.873 54.6029 239.84 55.0361L240.592 57.5267H242.741C244.138 59.4759 244.675 62.0749 244.675 64.1323C244.783 71.1711 237.906 85.0321 227.27 85.0321ZM172.905 106.087H156.789V56.6604C159.475 57.2019 162.161 57.4184 165.062 57.4184C165.814 57.4184 166.566 57.4184 167.318 57.3102V90.988C167.318 97.0521 170.649 102.405 176.128 106.087H172.905ZM117.895 106.473V65.1069L144.218 106.04C137.557 106.906 131.863 109.289 127.887 112.862V106.473H117.895ZM66.8611 137.011C60.6295 137.011 58.6956 131.271 58.6956 127.265C58.6956 120.118 65.5718 106.365 76.101 106.365C82.3325 106.365 84.2664 112.104 84.2664 116.111C84.2664 123.15 77.3902 137.011 66.8611 137.011ZM190.095 110.48C194.715 110.48 198.798 109.397 202.236 107.448H202.344L207.716 111.779V150.33C202.988 154.553 196.22 158.235 189.666 158.235C185.905 158.235 180.856 155.961 180.856 152.388V126.615H194.823L203.633 133.762V125.532H180.856V108.856C183.756 109.938 186.765 110.48 190.095 110.48ZM101.242 109.397H111.341H117.895V107.448H118.97L126.813 113.729C123.697 116.869 121.978 120.551 121.978 124.666C121.978 135.061 133.689 144.049 148.946 144.049C154.64 144.049 160.334 142.75 164.847 140.259C167.533 143.183 169.682 146.757 169.682 150.33C169.682 155.745 164.095 158.56 156.789 158.56C142.607 158.56 131.97 152.388 133.152 142.1L120.044 147.298C120.581 149.031 121.226 150.547 122.193 152.063C117.68 155.42 111.986 158.127 106.292 158.127C102.531 158.127 97.4816 155.853 97.4816 152.279V126.507H111.449L120.259 133.654V125.424H97.4816V107.556H101.242V109.397ZM38.2819 143.291C31.6206 143.291 24.7444 139.501 20.2319 135.928C14.9673 131.488 11.2069 124.449 11.2069 118.277C11.2069 113.295 13.7854 109.614 20.5542 109.614C31.5131 109.614 44.0837 118.818 46.9846 129.972V138.418C45.9102 141.342 43.2241 143.291 38.2819 143.291ZM132.937 127.59C130.251 124.666 128.102 121.092 128.102 117.41C128.102 112.754 132.077 109.722 138.739 109.722C147.119 109.722 163.235 113.295 164.095 119.035L170.864 110.913V132.029C166.029 127.048 157.971 123.691 148.946 123.691C143.036 123.799 137.557 124.991 132.937 127.59ZM296.354 158.019C277.23 158.019 258.75 141.775 258.75 126.615C258.75 116.977 266.593 109.83 278.734 109.83C290.23 109.83 301.404 115.786 308.173 123.041L308.602 122.717V154.987C305.057 157.044 300.759 158.019 296.354 158.019ZM159.045 139.718C149.375 139.718 139.276 133.979 134.011 128.672C135.516 128.239 137.127 128.023 138.631 128.023C148.408 128.023 158.4 133.762 163.665 139.068C162.268 139.61 160.657 139.718 159.045 139.718ZM70.4066 138.418C77.0679 138.418 83.192 135.82 87.3822 131.921V157.044L80.506 148.164H76.5307C73.3075 148.164 70.8364 146.865 69.0099 144.807L62.6709 137.119C65.142 137.985 67.6132 138.418 70.4066 138.418Z" fill="white" stroke="white" stroke-width="0.2"/>
</svg>
