<svg width="1259" height="329" viewBox="0 0 1259 329" fill="none" xmlns="http://www.w3.org/2000/svg">
<path d="M1210.05 129.81C1200.53 129.81 1192.82 126.075 1187.52 119.809L1168.48 96.7943C1175.95 99.3247 1183.42 100.771 1191.74 100.771C1227.28 100.771 1258 76.792 1258 48.2344C1258 21.7253 1231.74 1 1198.72 1C1177.52 1 1157.16 9.79621 1144.75 23.5327L1133.06 14.1341L1125.47 8.22976L1121.38 11.4831L1094.75 32.6904L1102.46 38.7152V103.181C1110.77 112.7 1117.52 124.749 1117.52 136.678C1117.52 150.174 1107.76 159.693 1090.29 159.693C1053.55 159.693 1011.26 121.737 1011.26 93.1794C1011.26 84.3832 1015.72 75.7075 1026.32 71.9721V5.21736H995.836V114.748C995.836 132.341 1005.47 148.849 1021.02 159.693H1014.15V171.622C1003.55 165.477 991.74 161.019 979.09 158.488V4.97637L948.608 29.437V156.44C947.404 156.56 946.319 156.56 945.115 156.681L847.044 4.97637H841.502H837.767H831.864V9.67571L803.671 32.4494L811.141 38.7152V169.694H841.622L855.598 169.574L838.611 183.551V316.097L736.926 159.573H721.745H665.602V37.2693L751.142 169.333H782.587V4.97637L752.106 29.437V161.983L657.65 16.4235L661.867 5.09686H650.421H635H605.482C620.181 10.7602 630.783 26.0632 635 40.2817V63.6579L603.193 152.825C587.17 103.542 571.387 54.5002 555.242 5.09686H524.761L543.797 64.3809L511.749 152.945L463.919 5.21736H433.438L441.992 31.4855C423.197 15.2185 396.33 4.97637 366.451 4.97637C335.969 4.97637 308.621 15.58 289.826 32.4494C281.754 13.8931 259.826 1 233.803 1C212.598 1 192.237 9.79621 179.828 23.5327L156.575 4.97637V40.2817C139.588 18.3514 109.709 4.25339 73.4444 4.25339C67.6614 4.25339 61.8784 4.73537 55.9749 5.45835L39.7101 21.2433V4.97637H35.7343L2 32.2085L9.22878 37.7513V169.574H12.9636L37.421 150.053C47.9027 163.79 64.4084 171.261 84.4081 171.261C96.697 171.261 107.902 168.971 117.781 165.115V323.688H148.262V259.946C160.551 274.405 181.756 282.72 203.321 282.72C224.526 282.72 241.513 275.972 253.441 265.489V323.688H283.922V243.197C287.175 245.486 291.151 247.655 295.127 249.463C315.608 273.682 335.367 298.505 354.644 323.688H370.788H374.282H375.366L381.27 318.989L399.221 304.65C411.751 318.627 431.992 327.424 453.678 327.424C467.413 327.424 480.666 323.929 491.87 317.663H491.96C504.972 324.773 521.87 326.942 542.11 326.942C571.387 326.942 597.41 319.23 613.795 305.493V324.411H617.53L642.229 304.65C654.759 318.627 674.999 327.424 696.686 327.424C705.481 327.424 714.035 325.978 721.986 323.327V323.688H752.468V191.504L838.008 323.568H869.453V286.937C887.405 310.554 918.97 326.821 956.319 326.821C977.524 326.821 997.885 321.278 1014.87 311.398V324.291H1018.61L1043.31 304.529C1055.84 318.507 1076.08 327.303 1097.76 327.303C1111.5 327.303 1124.75 323.809 1135.95 317.543V281.033C1122.7 296.577 1097.16 314.289 1071.98 314.289C1060.53 314.289 1045.47 307.542 1045.47 296.818V220.062H1086.8L1113.3 241.51V217.049H1044.99V170.176C1051.14 171.743 1057.64 172.586 1064.51 172.586C1078.97 172.586 1091.98 168.971 1102.7 162.826H1109.69L1136.44 184.033V169.333H1152.1V88.9621C1155.35 91.2515 1159.33 93.4204 1163.3 95.2278C1183.78 119.448 1203.54 144.27 1222.82 169.453H1253.06L1222.1 129.931H1210.05V129.81ZM635 77.5149V158.85H621.868H605.121L605 158.488L635 77.5149ZM545.965 71.0082L574.278 158.247L550.544 157.645C537.773 157.645 525.725 159.693 515.002 163.188L513.556 158.729L545.965 71.0082ZM483.437 159.693H414.884C440.305 148.849 459.341 129.569 466.328 106.554L483.437 159.693ZM245.128 129.69C235.61 129.69 228.381 125.593 222.598 119.809L203.562 96.7943C211.032 99.3247 218.502 100.771 226.815 100.771C240.309 100.771 253.079 97.2763 263.802 91.4925C265.609 119.327 284.766 143.547 312.837 157.283C303.44 159.452 294.765 163.308 287.296 168.369L257.055 129.69H245.128ZM339.945 17.7489C395.968 17.7489 452.955 63.5374 452.955 108.241C452.955 137.04 428.498 156.56 392.715 156.56C341.632 156.56 289.826 118.484 281.031 77.9969C288.621 69.4417 293.079 59.1995 293.079 48.2344C293.079 44.0171 292.356 39.9202 291.151 36.0643C301.633 24.6172 318.861 17.7489 339.945 17.7489ZM244.044 5.21736C262.838 5.21736 268.742 22.2073 268.742 34.2569C268.742 55.4642 248.019 96.5533 216.213 96.5533C197.659 96.5533 191.755 79.5634 191.755 67.5138C191.755 46.3065 212.357 5.21736 244.044 5.21736ZM198.261 95.2278C217.177 117.52 235.489 140.534 253.32 163.67V173.43C241.393 162.826 224.526 156.199 203.201 156.199C197.659 156.199 192.237 156.801 187.057 157.765V88.9621C190.31 91.2515 194.285 93.2999 198.261 95.2278ZM63.4446 159.814C45.2522 159.814 39.9511 151.258 39.9511 138.365C39.9511 125.593 46.9389 113.423 56.4568 103.301C50.1918 99.3247 39.4692 87.5161 39.4692 81.0093V33.5339C55.252 23.7737 76.9383 15.58 97.1789 15.58C137.66 15.58 153.443 34.1364 153.443 66.0678C153.443 101.012 112.962 159.814 63.4446 159.814ZM156.575 169.514C151.515 173.009 149.106 176.804 145.491 181.503L122.359 162.947C136.937 156.078 148.383 145.475 156.575 133.064V169.333V169.514ZM229.706 269.706C209.707 269.706 188.984 258.5 175.491 247.655C159.708 234.401 148.503 213.434 148.503 195.119C148.503 181.262 155.13 170.899 172.358 169.453H181.033C210.068 171.502 241.754 193.914 253.2 221.99V260.066C249.104 265.971 241.513 269.706 229.706 269.706ZM288.38 221.749C288.38 204.156 302.717 172.827 325.729 162.706C336.331 166.32 347.897 168.61 359.945 169.212C363.921 174.996 365.367 182.346 365.367 188.492C365.367 209.699 344.644 250.788 312.837 250.788C294.284 250.788 288.38 233.798 288.38 221.749ZM353.8 284.045H341.993C332.476 284.045 324.765 280.31 319.464 274.044L300.428 251.029C307.898 253.56 315.367 255.005 323.681 255.005C341.753 255.005 358.62 248.86 370.788 238.98V305.614L353.8 284.045ZM574.399 315.494C531.869 315.494 499.701 297.179 503.195 266.453L463.678 281.997C465.485 288.142 468.256 293.685 471.75 298.625C458.859 307.542 443.076 314.289 427.534 314.289C416.088 314.289 401.028 307.542 401.028 296.818V220.062H442.835L469.34 241.51V217.049H401.028V164.513C402.836 164.031 404.643 163.429 406.33 162.826H465.606L486.328 179.214C475.605 188.853 469.34 200.903 469.34 214.157C469.34 245.366 504.4 271.875 550.303 271.875C567.531 271.875 584.519 267.899 598.254 260.669C606.446 269.465 612.952 279.948 612.952 290.672C612.952 307.06 596.205 315.494 574.399 315.494ZM505.725 226.207C510.183 224.761 515.002 224.4 519.701 224.4C548.977 224.4 578.977 241.389 595.001 257.415C590.543 258.62 585.724 259.102 580.784 259.102C551.869 258.982 521.629 241.992 505.725 226.207ZM550.423 211.265C532.713 211.265 516.207 215.001 502.231 222.713C494.039 213.916 487.533 203.192 487.533 192.468C487.533 188.733 488.376 185.238 490.063 182.346L491.147 180.539L492.352 179.214C496.93 173.912 504.761 170.538 515.002 169.694H517.05V169.574C517.894 169.574 518.737 169.574 519.701 169.574C545.002 169.574 593.434 180.298 595.965 197.529L613.434 176.683V233.678C598.615 220.182 575.965 211.265 550.423 211.265ZM670.421 314.289C658.975 314.289 643.915 307.542 643.915 296.818V220.062H685.722L712.227 241.51V217.049H643.915V169.333H665.481V162.826H708.613L721.625 173.068V293.323C707.77 304.65 688.975 314.289 670.421 314.289ZM862.345 164.513V37.2693L940.054 157.163C909.694 161.019 884.393 175.84 869.092 196.083V159.211L862.345 164.513ZM982.222 313.326C924.753 313.326 869.212 264.766 869.212 219.58C869.212 190.781 892.706 169.574 929.452 169.574C962.223 169.574 994.029 185.6 1014.51 205.723V306.698C1004.87 311.277 993.668 313.326 982.222 313.326ZM1156.56 67.5138C1156.56 46.3065 1177.28 5.21736 1208.84 5.21736C1227.64 5.21736 1233.54 22.2073 1233.54 34.2569C1233.54 55.4642 1212.82 96.5533 1181.01 96.5533C1162.34 96.5533 1156.56 79.5634 1156.56 67.5138Z" stroke="white" stroke-width="2" stroke-miterlimit="10" stroke-linecap="round"/>
</svg>
