<svg width="1256" height="327" viewBox="0 0 1256 327" fill="none" xmlns="http://www.w3.org/2000/svg">
<mask id="path-1-inside-1" fill="white">
<path d="M1208.05 128.81C1198.53 128.81 1190.82 125.075 1185.52 118.809L1166.48 95.7943C1173.95 98.3247 1181.42 99.7707 1189.74 99.7707C1225.28 99.7707 1256 75.792 1256 47.2344C1256 20.7253 1229.74 0 1196.72 0C1175.52 0 1155.16 8.79621 1142.75 22.5327L1131.06 13.1341V4.21736H1127.33L1123.47 7.22976L1119.38 3.97637V10.4831L1092.75 31.6904L1100.46 37.7152V102.181C1108.77 111.7 1115.52 123.749 1115.52 135.678C1115.52 149.174 1105.76 158.693 1088.29 158.693C1051.55 158.693 1009.26 120.737 1009.26 92.1794C1009.26 83.3832 1013.72 74.7075 1024.32 70.9721V4.21736H993.836V113.748C993.836 131.341 1003.47 147.849 1019.02 158.693H1012.15V170.622C1001.55 164.477 989.74 160.019 977.09 157.488V3.97637L946.608 28.437V155.44C945.404 155.56 944.319 155.56 943.115 155.681L845.044 3.97637H839.502H835.767H829.864V8.67571L801.671 31.4494L809.141 37.7152V168.694H839.622L853.598 168.574L836.611 182.551V315.097L734.926 158.573H719.745H663.602V36.2693L749.142 168.333H780.587V3.97637L750.106 28.437V160.983L655.65 15.4235L659.867 4.09686H648.421H633H603.482C618.181 9.76017 628.783 25.0632 633 39.2817V62.6579L601.193 151.825C585.17 102.542 569.387 53.5002 553.242 4.09686H522.761L541.797 63.3809L509.749 151.945L461.919 4.21736H431.438L439.992 30.4855C421.197 14.2185 394.33 3.97637 364.451 3.97637C333.969 3.97637 306.621 14.58 287.826 31.4494C279.754 12.8931 257.826 0 231.803 0C210.598 0 190.237 8.79621 177.828 22.5327L154.575 3.97637V39.2817C137.588 17.3514 107.709 3.25339 71.4444 3.25339C65.6614 3.25339 59.8784 3.73537 53.9749 4.45835L37.7101 20.2433V3.97637H33.7343L0 31.2085L7.22878 36.7513V168.574H10.9636L35.421 149.053C45.9027 162.79 62.4084 170.261 82.4081 170.261C94.697 170.261 105.902 167.971 115.781 164.115V322.688H146.262V258.946C158.551 273.405 179.756 281.72 201.321 281.72C222.526 281.72 239.513 274.972 251.441 264.489V322.688H281.922V242.197C285.175 244.486 289.151 246.655 293.127 248.463C313.608 272.682 333.367 297.505 352.644 322.688H368.788H372.282H373.366H382.884L379.27 317.989L397.221 303.65C409.751 317.627 429.992 326.424 451.678 326.424C465.413 326.424 478.666 322.929 489.87 316.663H489.96C502.972 323.773 519.87 325.942 540.11 325.942C569.387 325.942 595.41 318.23 611.795 304.493V323.411H615.53L640.229 303.65C652.759 317.627 672.999 326.424 694.686 326.424C703.481 326.424 712.035 324.978 719.986 322.327V322.688H750.468V190.504L836.008 322.568H867.453V285.937C885.405 309.554 916.97 325.821 954.319 325.821C975.524 325.821 995.885 320.278 1012.87 310.398V323.291H1016.61L1041.31 303.529C1053.84 317.507 1074.08 326.303 1095.76 326.303C1109.5 326.303 1122.75 322.809 1133.95 316.543V280.033C1120.7 295.577 1095.16 313.289 1069.98 313.289C1058.53 313.289 1043.47 306.542 1043.47 295.818V219.062H1084.8L1111.3 240.51V216.049H1042.99V169.176C1049.14 170.743 1055.64 171.586 1062.51 171.586C1076.97 171.586 1089.98 167.971 1100.7 161.826H1107.69L1134.44 183.033V168.333H1150.1V87.9621C1153.35 90.2515 1157.33 92.4204 1161.3 94.2278C1181.78 118.448 1201.54 143.27 1220.82 168.453H1251.06L1220.1 128.931H1208.05V128.81ZM633 76.5149V157.85H619.868H603.121L603 157.488L633 76.5149ZM543.965 70.0082L572.278 157.247L548.544 156.645C535.773 156.645 523.725 158.693 513.002 162.188L511.556 157.729L543.965 70.0082ZM481.437 158.693H412.884C438.305 147.849 457.341 128.569 464.328 105.554L481.437 158.693ZM243.128 128.69C233.61 128.69 226.381 124.593 220.598 118.809L201.562 95.7943C209.032 98.3247 216.502 99.7707 224.815 99.7707C238.309 99.7707 251.079 96.2763 261.802 90.4925C263.609 118.327 282.766 142.547 310.837 156.283C301.44 158.452 292.765 162.308 285.296 167.369L255.055 128.69H243.128ZM337.945 16.7489C393.968 16.7489 450.955 62.5374 450.955 107.241C450.955 136.04 426.498 155.56 390.715 155.56C339.632 155.56 287.826 117.484 279.031 76.9969C286.621 68.4417 291.079 58.1995 291.079 47.2344C291.079 43.0171 290.356 38.9202 289.151 35.0643C299.633 23.6172 316.861 16.7489 337.945 16.7489ZM242.044 4.21736C260.838 4.21736 266.742 21.2073 266.742 33.2569C266.742 54.4642 246.019 95.5533 214.213 95.5533C195.659 95.5533 189.755 78.5634 189.755 66.5138C189.755 45.3065 210.357 4.21736 242.044 4.21736ZM196.261 94.2278C215.177 116.52 233.489 139.534 251.32 162.67V172.43C239.393 161.826 222.526 155.199 201.201 155.199C195.659 155.199 190.237 155.801 185.057 156.765V87.9621C188.31 90.2515 192.285 92.2999 196.261 94.2278ZM61.4446 158.814C43.2522 158.814 37.9511 150.258 37.9511 137.365C37.9511 124.593 44.9389 112.423 54.4568 102.301C48.1918 98.3247 37.4692 86.5161 37.4692 80.0093V32.5339C53.252 22.7737 74.9383 14.58 95.1789 14.58C135.66 14.58 151.443 33.1364 151.443 65.0678C151.443 100.012 110.962 158.814 61.4446 158.814ZM154.575 168.514C149.515 172.009 147.106 175.804 143.491 180.503L120.359 161.947C134.937 155.078 146.383 144.475 154.575 132.064V168.333V168.514ZM227.706 268.706C207.707 268.706 186.984 257.5 173.491 246.655C157.708 233.401 146.503 212.434 146.503 194.119C146.503 180.262 153.13 169.899 170.358 168.453H179.033C208.068 170.502 239.754 192.914 251.2 220.99V259.066C247.104 264.971 239.513 268.706 227.706 268.706ZM286.38 220.749C286.38 203.156 300.717 171.827 323.729 161.706C334.331 165.32 345.897 167.61 357.945 168.212C361.921 173.996 363.367 181.346 363.367 187.492C363.367 208.699 342.644 249.788 310.837 249.788C292.284 249.788 286.38 232.798 286.38 220.749ZM351.8 283.045H339.993C330.476 283.045 322.765 279.31 317.464 273.044L298.428 250.029C305.898 252.56 313.367 254.005 321.681 254.005C339.753 254.005 356.62 247.86 368.788 237.98V304.614L351.8 283.045ZM572.399 314.494C529.869 314.494 497.701 296.179 501.195 265.453L461.678 280.997C463.485 287.142 466.256 292.685 469.75 297.625C456.859 306.542 441.076 313.289 425.534 313.289C414.088 313.289 399.028 306.542 399.028 295.818V219.062H440.835L467.34 240.51V216.049H399.028V163.513C400.836 163.031 402.643 162.429 404.33 161.826H463.606L484.328 178.214C473.605 187.853 467.34 199.903 467.34 213.157C467.34 244.366 502.4 270.875 548.303 270.875C565.531 270.875 582.519 266.899 596.254 259.669C604.446 268.465 610.952 278.948 610.952 289.672C610.952 306.06 594.205 314.494 572.399 314.494ZM503.725 225.207C508.183 223.761 513.002 223.4 517.701 223.4C546.977 223.4 576.977 240.389 593.001 256.415C588.543 257.62 583.724 258.102 578.784 258.102C549.869 257.982 519.629 240.992 503.725 225.207ZM548.423 210.265C530.713 210.265 514.207 214.001 500.231 221.713C492.039 212.916 485.533 202.192 485.533 191.468C485.533 187.733 486.376 184.238 488.063 181.346L489.147 179.539L490.352 178.214C494.93 172.912 502.761 169.538 513.002 168.694H515.05V168.574C515.894 168.574 516.737 168.574 517.701 168.574C543.002 168.574 591.434 179.298 593.965 196.529L611.434 175.683V232.678C596.615 219.182 573.965 210.265 548.423 210.265ZM668.421 313.289C656.975 313.289 641.915 306.542 641.915 295.818V219.062H683.722L710.227 240.51V216.049H641.915V168.333H663.481V161.826H706.613L719.625 172.068V292.323C705.77 303.65 686.975 313.289 668.421 313.289ZM860.345 163.513V36.2693L938.054 156.163C907.694 160.019 882.393 174.84 867.092 195.083V158.211L860.345 163.513ZM980.222 312.326C922.753 312.326 867.212 263.766 867.212 218.58C867.212 189.781 890.706 168.574 927.452 168.574C960.223 168.574 992.029 184.6 1012.51 204.723V305.698C1002.87 310.277 991.668 312.326 980.222 312.326ZM1154.56 66.5138C1154.56 45.3065 1175.28 4.21736 1206.84 4.21736C1225.64 4.21736 1231.54 21.2073 1231.54 33.2569C1231.54 54.4642 1210.82 95.5533 1179.01 95.5533C1160.34 95.5533 1154.56 78.5634 1154.56 66.5138Z"/>
</mask>
<path d="M1208.05 128.81C1198.53 128.81 1190.82 125.075 1185.52 118.809L1166.48 95.7943C1173.95 98.3247 1181.42 99.7707 1189.74 99.7707C1225.28 99.7707 1256 75.792 1256 47.2344C1256 20.7253 1229.74 0 1196.72 0C1175.52 0 1155.16 8.79621 1142.75 22.5327L1131.06 13.1341V4.21736H1127.33L1123.47 7.22976L1119.38 3.97637V10.4831L1092.75 31.6904L1100.46 37.7152V102.181C1108.77 111.7 1115.52 123.749 1115.52 135.678C1115.52 149.174 1105.76 158.693 1088.29 158.693C1051.55 158.693 1009.26 120.737 1009.26 92.1794C1009.26 83.3832 1013.72 74.7075 1024.32 70.9721V4.21736H993.836V113.748C993.836 131.341 1003.47 147.849 1019.02 158.693H1012.15V170.622C1001.55 164.477 989.74 160.019 977.09 157.488V3.97637L946.608 28.437V155.44C945.404 155.56 944.319 155.56 943.115 155.681L845.044 3.97637H839.502H835.767H829.864V8.67571L801.671 31.4494L809.141 37.7152V168.694H839.622L853.598 168.574L836.611 182.551V315.097L734.926 158.573H719.745H663.602V36.2693L749.142 168.333H780.587V3.97637L750.106 28.437V160.983L655.65 15.4235L659.867 4.09686H648.421H633H603.482C618.181 9.76017 628.783 25.0632 633 39.2817V62.6579L601.193 151.825C585.17 102.542 569.387 53.5002 553.242 4.09686H522.761L541.797 63.3809L509.749 151.945L461.919 4.21736H431.438L439.992 30.4855C421.197 14.2185 394.33 3.97637 364.451 3.97637C333.969 3.97637 306.621 14.58 287.826 31.4494C279.754 12.8931 257.826 0 231.803 0C210.598 0 190.237 8.79621 177.828 22.5327L154.575 3.97637V39.2817C137.588 17.3514 107.709 3.25339 71.4444 3.25339C65.6614 3.25339 59.8784 3.73537 53.9749 4.45835L37.7101 20.2433V3.97637H33.7343L0 31.2085L7.22878 36.7513V168.574H10.9636L35.421 149.053C45.9027 162.79 62.4084 170.261 82.4081 170.261C94.697 170.261 105.902 167.971 115.781 164.115V322.688H146.262V258.946C158.551 273.405 179.756 281.72 201.321 281.72C222.526 281.72 239.513 274.972 251.441 264.489V322.688H281.922V242.197C285.175 244.486 289.151 246.655 293.127 248.463C313.608 272.682 333.367 297.505 352.644 322.688H368.788H372.282H373.366H382.884L379.27 317.989L397.221 303.65C409.751 317.627 429.992 326.424 451.678 326.424C465.413 326.424 478.666 322.929 489.87 316.663H489.96C502.972 323.773 519.87 325.942 540.11 325.942C569.387 325.942 595.41 318.23 611.795 304.493V323.411H615.53L640.229 303.65C652.759 317.627 672.999 326.424 694.686 326.424C703.481 326.424 712.035 324.978 719.986 322.327V322.688H750.468V190.504L836.008 322.568H867.453V285.937C885.405 309.554 916.97 325.821 954.319 325.821C975.524 325.821 995.885 320.278 1012.87 310.398V323.291H1016.61L1041.31 303.529C1053.84 317.507 1074.08 326.303 1095.76 326.303C1109.5 326.303 1122.75 322.809 1133.95 316.543V280.033C1120.7 295.577 1095.16 313.289 1069.98 313.289C1058.53 313.289 1043.47 306.542 1043.47 295.818V219.062H1084.8L1111.3 240.51V216.049H1042.99V169.176C1049.14 170.743 1055.64 171.586 1062.51 171.586C1076.97 171.586 1089.98 167.971 1100.7 161.826H1107.69L1134.44 183.033V168.333H1150.1V87.9621C1153.35 90.2515 1157.33 92.4204 1161.3 94.2278C1181.78 118.448 1201.54 143.27 1220.82 168.453H1251.06L1220.1 128.931H1208.05V128.81ZM633 76.5149V157.85H619.868H603.121L603 157.488L633 76.5149ZM543.965 70.0082L572.278 157.247L548.544 156.645C535.773 156.645 523.725 158.693 513.002 162.188L511.556 157.729L543.965 70.0082ZM481.437 158.693H412.884C438.305 147.849 457.341 128.569 464.328 105.554L481.437 158.693ZM243.128 128.69C233.61 128.69 226.381 124.593 220.598 118.809L201.562 95.7943C209.032 98.3247 216.502 99.7707 224.815 99.7707C238.309 99.7707 251.079 96.2763 261.802 90.4925C263.609 118.327 282.766 142.547 310.837 156.283C301.44 158.452 292.765 162.308 285.296 167.369L255.055 128.69H243.128ZM337.945 16.7489C393.968 16.7489 450.955 62.5374 450.955 107.241C450.955 136.04 426.498 155.56 390.715 155.56C339.632 155.56 287.826 117.484 279.031 76.9969C286.621 68.4417 291.079 58.1995 291.079 47.2344C291.079 43.0171 290.356 38.9202 289.151 35.0643C299.633 23.6172 316.861 16.7489 337.945 16.7489ZM242.044 4.21736C260.838 4.21736 266.742 21.2073 266.742 33.2569C266.742 54.4642 246.019 95.5533 214.213 95.5533C195.659 95.5533 189.755 78.5634 189.755 66.5138C189.755 45.3065 210.357 4.21736 242.044 4.21736ZM196.261 94.2278C215.177 116.52 233.489 139.534 251.32 162.67V172.43C239.393 161.826 222.526 155.199 201.201 155.199C195.659 155.199 190.237 155.801 185.057 156.765V87.9621C188.31 90.2515 192.285 92.2999 196.261 94.2278ZM61.4446 158.814C43.2522 158.814 37.9511 150.258 37.9511 137.365C37.9511 124.593 44.9389 112.423 54.4568 102.301C48.1918 98.3247 37.4692 86.5161 37.4692 80.0093V32.5339C53.252 22.7737 74.9383 14.58 95.1789 14.58C135.66 14.58 151.443 33.1364 151.443 65.0678C151.443 100.012 110.962 158.814 61.4446 158.814ZM154.575 168.514C149.515 172.009 147.106 175.804 143.491 180.503L120.359 161.947C134.937 155.078 146.383 144.475 154.575 132.064V168.333V168.514ZM227.706 268.706C207.707 268.706 186.984 257.5 173.491 246.655C157.708 233.401 146.503 212.434 146.503 194.119C146.503 180.262 153.13 169.899 170.358 168.453H179.033C208.068 170.502 239.754 192.914 251.2 220.99V259.066C247.104 264.971 239.513 268.706 227.706 268.706ZM286.38 220.749C286.38 203.156 300.717 171.827 323.729 161.706C334.331 165.32 345.897 167.61 357.945 168.212C361.921 173.996 363.367 181.346 363.367 187.492C363.367 208.699 342.644 249.788 310.837 249.788C292.284 249.788 286.38 232.798 286.38 220.749ZM351.8 283.045H339.993C330.476 283.045 322.765 279.31 317.464 273.044L298.428 250.029C305.898 252.56 313.367 254.005 321.681 254.005C339.753 254.005 356.62 247.86 368.788 237.98V304.614L351.8 283.045ZM572.399 314.494C529.869 314.494 497.701 296.179 501.195 265.453L461.678 280.997C463.485 287.142 466.256 292.685 469.75 297.625C456.859 306.542 441.076 313.289 425.534 313.289C414.088 313.289 399.028 306.542 399.028 295.818V219.062H440.835L467.34 240.51V216.049H399.028V163.513C400.836 163.031 402.643 162.429 404.33 161.826H463.606L484.328 178.214C473.605 187.853 467.34 199.903 467.34 213.157C467.34 244.366 502.4 270.875 548.303 270.875C565.531 270.875 582.519 266.899 596.254 259.669C604.446 268.465 610.952 278.948 610.952 289.672C610.952 306.06 594.205 314.494 572.399 314.494ZM503.725 225.207C508.183 223.761 513.002 223.4 517.701 223.4C546.977 223.4 576.977 240.389 593.001 256.415C588.543 257.62 583.724 258.102 578.784 258.102C549.869 257.982 519.629 240.992 503.725 225.207ZM548.423 210.265C530.713 210.265 514.207 214.001 500.231 221.713C492.039 212.916 485.533 202.192 485.533 191.468C485.533 187.733 486.376 184.238 488.063 181.346L489.147 179.539L490.352 178.214C494.93 172.912 502.761 169.538 513.002 168.694H515.05V168.574C515.894 168.574 516.737 168.574 517.701 168.574C543.002 168.574 591.434 179.298 593.965 196.529L611.434 175.683V232.678C596.615 219.182 573.965 210.265 548.423 210.265ZM668.421 313.289C656.975 313.289 641.915 306.542 641.915 295.818V219.062H683.722L710.227 240.51V216.049H641.915V168.333H663.481V161.826H706.613L719.625 172.068V292.323C705.77 303.65 686.975 313.289 668.421 313.289ZM860.345 163.513V36.2693L938.054 156.163C907.694 160.019 882.393 174.84 867.092 195.083V158.211L860.345 163.513ZM980.222 312.326C922.753 312.326 867.212 263.766 867.212 218.58C867.212 189.781 890.706 168.574 927.452 168.574C960.223 168.574 992.029 184.6 1012.51 204.723V305.698C1002.87 310.277 991.668 312.326 980.222 312.326ZM1154.56 66.5138C1154.56 45.3065 1175.28 4.21736 1206.84 4.21736C1225.64 4.21736 1231.54 21.2073 1231.54 33.2569C1231.54 54.4642 1210.82 95.5533 1179.01 95.5533C1160.34 95.5533 1154.56 78.5634 1154.56 66.5138Z" stroke="white" stroke-width="6" stroke-miterlimit="10" stroke-linecap="round" mask="url(#path-1-inside-1)"/>
</svg>
