<?xml version="1.0" encoding="utf-8"?>
<!-- Generator: Adobe Illustrator 24.1.0, SVG Export Plug-In . SVG Version: 6.00 Build 0)  -->
<svg version="1.1" id="Calque_1" xmlns="http://www.w3.org/2000/svg" xmlns:xlink="http://www.w3.org/1999/xlink" x="0px" y="0px"
	 viewBox="0 0 161.9 56.2" style="enable-background:new 0 0 161.9 56.2;" xml:space="preserve">
<style type="text/css">
	.st0{fill:#FFFFFF;}
</style>
<g>
	<path class="st0" d="M42.3,31.8c0,5-1.2,9.3-3.7,12.8c-1.7,2.4-3.8,4.3-6.4,5.6s-5.5,2-8.8,2c-5.3,0-9.7-1.8-13.3-5.3
		C6.4,43.4,4.6,38.8,4.6,33c0-5.3,1.4-9.8,4.1-13.6c1.7-2.3,3.8-4.1,6.2-5.4c2.5-1.3,5.2-1.9,8.1-1.9c5.6,0,10.2,1.8,13.8,5.3
		C40.5,21,42.3,25.8,42.3,31.8z M22.2,14.3c-1.4,0-2.8,0.3-4.2,1c-1.4,0.7-2.6,1.7-3.8,3.1c-1.2,1.3-2.1,3.2-2.8,5.6
		c-0.7,2.4-1.1,5-1.1,8c0,5.5,1.4,9.9,4.2,13.1c2.8,3.3,6.1,4.9,10,4.9c3.5,0,6.4-1.5,8.6-4.6c2.2-3.1,3.4-7.2,3.4-12.4
		c0-5.8-1.4-10.4-4.1-13.7C29.7,15.9,26.3,14.3,22.2,14.3z M29.8,6.9H16.4c-0.5,0-0.8-0.4-0.8-1.1c0-0.4,0.1-0.8,0.4-1.2
		c0.3-0.4,0.6-0.7,0.9-0.7h13.5c0.6,0,0.8,0.3,0.8,1c0,0.4-0.2,0.8-0.5,1.3C30.5,6.7,30.2,6.9,29.8,6.9z"/>
	<path class="st0" d="M46.7,25.9h2.8c0-1.2,0-2.3,0-3.2s0-1.5,0-1.9s0-0.7-0.1-1s0-0.4,0-0.5s0-0.2,0-0.3c0-0.1,0.1-0.3,0.2-0.4
		s0.3-0.2,0.5-0.3s0.4-0.1,0.8-0.2s0.6-0.2,0.8-0.3c0.2-0.1,0.5-0.2,0.9-0.4s0.7-0.4,0.9-0.5s0.4-0.2,0.6-0.2c0.3,0,0.5,0.2,0.5,0.5
		c-0.2,1.6-0.2,3.7-0.2,6.3v2.3h7.2c0.3,0,0.5,0.1,0.5,0.4v1.1c0,0.5-0.5,0.7-1.4,0.7h-6.2v15.3c0,2,0.1,3.4,0.4,4.3
		s0.8,1.3,1.6,1.3c1.8,0,3.5-0.6,4.9-1.7c0.6,0,1,0.4,1.1,1c-2.4,2.6-5.1,4-8.1,4c-3.1,0-4.6-2-4.6-6V28h-3.5
		c-0.2,0-0.3-0.1-0.3-0.3V27C45.6,26.2,45.9,25.9,46.7,25.9z"/>
	<path class="st0" d="M74.2,44.1c0,2.4,0.2,3.8,0.7,4.4c0.5,0.6,1.7,0.9,3.6,1c0.2,0.2,0.3,0.6,0.3,1.1c0,0.5-0.1,0.9-0.3,1.1
		c-3.4-0.1-5.7-0.1-6.7-0.1c-1.1,0-3.4,0-6.7,0.1c-0.2-0.2-0.2-0.5-0.2-1.1c0-0.5,0.1-0.9,0.2-1.1c1.9-0.2,3.1-0.5,3.6-1
		c0.5-0.5,0.7-2,0.7-4.4V32.6c0-1.7-0.2-2.7-0.7-3.1c-0.5-0.4-1.5-0.7-3.2-0.9c-0.2-0.7-0.3-1.2-0.1-1.7c3.7-0.5,6.4-1.1,8.2-1.7
		c0.5,0,0.8,0.1,0.8,0.4c0,0.1,0,0.2,0,0.4s0,0.6-0.1,1.1s0,1.1-0.1,1.6s0,1.1-0.1,1.8c0,0.7,0,1.3,0,1.9V44.1z M68.7,15.7
		c0-0.7,0.3-1.4,1-2s1.4-0.9,2.1-0.9c0.8,0,1.4,0.3,2,1s0.9,1.4,0.9,2.1c0,0.7-0.3,1.3-1,2s-1.4,0.9-2.2,0.9c-0.7,0-1.4-0.3-2-1
		S68.7,16.4,68.7,15.7z"/>
	<path class="st0" d="M90.9,52.2c-2.8,0-4.7-0.8-5.9-2.3c-1.2-1.5-1.8-3.5-1.8-5.8V32.7c0-1.9-0.2-3.1-0.7-3.7s-1.5-1-3-1.1
		c-0.2-0.2-0.2-0.5-0.2-1c0-0.5,0.1-0.9,0.2-1.1c3,0.1,5,0.1,6.1,0.1c1,0,1.7,0,2.1-0.1c0.3,0,0.5,0.1,0.5,0.4
		c-0.2,2.9-0.2,5-0.2,6.2v10.9c0,2.4,0.5,4,1.5,4.9s2.1,1.3,3.3,1.3c1.8,0,3.8-0.9,6-2.8c0.6-0.6,1-1.3,0.9-2.3V32.7
		c0-1.9-0.2-3.2-0.7-3.8c-0.5-0.6-1.5-1-3-1c-0.2-0.2-0.3-0.5-0.3-1c0-0.5,0.1-0.9,0.3-1.1c3,0.1,5,0.1,6.1,0.1c1,0,1.7,0,2.1-0.1
		c0.3,0,0.5,0.1,0.5,0.4c-0.2,2.9-0.2,5-0.2,6.2v11.5c0,1.6,0.3,2.6,0.8,3.2c0.5,0.6,1.7,1,3.6,1.1c0.2,0.2,0.3,0.5,0.3,0.8
		s-0.1,0.6-0.3,0.8c-3.4,0.4-5.8,1.2-7.3,2.4c-0.4,0.1-0.8,0.1-1.1,0c-0.4-1.4-0.7-2.6-0.7-3.5c0-0.4-0.2-0.5-0.7-0.1
		C96.1,51,93.4,52.2,90.9,52.2z"/>
	<path class="st0" d="M120.9,30.1c0,0.5,0.1,0.5,0.4,0.1c0.1-0.1,0.1-0.1,0.1-0.1c3.1-3.2,6.1-4.8,9.1-4.8c1.5,0,2.8,0.4,3.9,1.2
		c1.1,0.8,1.8,1.9,2.1,3.1c0.1,0.4,0.3,0.4,0.6,0c1-1,2.1-1.9,3.3-2.6s2.3-1.2,3.4-1.4s2.1-0.4,3.2-0.4c2.4,0,4.1,0.8,4.9,2.4
		s1.3,4,1.3,7v9.4c0,2.4,0.2,3.8,0.6,4.4c0.4,0.6,1.5,0.9,3.2,1c0.2,0.2,0.2,0.5,0.2,1.1s-0.1,0.9-0.2,1.1c-3.4-0.1-5.5-0.1-6.2-0.1
		c-0.7,0-2.8,0-6.1,0.1c-0.2-0.2-0.2-0.6-0.2-1.1s0.1-0.9,0.2-1.1c1.6-0.1,2.7-0.5,3.1-1c0.4-0.6,0.6-2,0.6-4.4V33.7
		c0-1.9-0.3-3.3-0.9-4.1s-1.5-1.2-2.7-1.2c-2.9,0-5.5,1.3-7.9,3.9c0,0.5,0.1,1.3,0.1,2.4v9.4c0,2.4,0.2,3.8,0.6,4.4
		c0.4,0.6,1.4,0.9,2.9,1c0.2,0.2,0.2,0.5,0.2,1.1s-0.1,0.9-0.2,1.1c-3.4-0.1-5.4-0.1-5.9-0.1c-0.7,0-2.8,0-6.1,0.1
		c-0.2-0.2-0.2-0.5-0.2-1.1c0-0.5,0.1-0.9,0.2-1.1c1.7-0.1,2.7-0.5,3.1-1c0.4-0.6,0.6-2,0.6-4.4V33.8c0-3.6-1.3-5.4-3.9-5.4
		c-1.9,0-4.1,1.2-6.5,3.5c-0.7,0.7-1,1.5-1,2.5v9.8c0,1.7,0.1,2.8,0.3,3.5c0.2,0.7,0.5,1.2,1,1.4c0.4,0.2,1.2,0.4,2.3,0.5
		c0.2,0.2,0.2,0.6,0.2,1.1s-0.1,0.9-0.2,1.1c-3.4-0.1-5.3-0.1-6-0.1c-1,0-3.2,0-6.5,0.1c-0.2-0.2-0.2-0.5-0.2-1.1
		c0-0.5,0.1-0.9,0.2-1.1c1.7-0.1,2.9-0.5,3.3-1c0.5-0.6,0.7-2,0.7-4.4V32.6c0-1.7-0.2-2.7-0.7-3.1c-0.5-0.4-1.5-0.7-3.2-0.9
		c-0.2-0.7-0.3-1.2-0.1-1.7c3.1-0.4,5.7-1,7.6-1.7c0.3,0,0.6,0.2,0.7,0.5C120.8,26.3,120.9,27.8,120.9,30.1z"/>
</g>
</svg>
