<?xml version="1.0" encoding="utf-8"?>
<!-- Generator: Adobe Illustrator 24.1.0, SVG Export Plug-In . SVG Version: 6.00 Build 0)  -->
<svg version="1.1" id="Calque_1" xmlns="http://www.w3.org/2000/svg" xmlns:xlink="http://www.w3.org/1999/xlink" x="0px" y="0px"
	 viewBox="0 0 35 30" style="enable-background:new 0 0 35 30;" xml:space="preserve">
<style type="text/css">
	.st0{fill:#FFFFFF;}
</style>
<path class="st0" d="M33.2,12L33.2,12c0.7,0,1.2,0.6,1.2,1.2v3.5c0,0.7-0.6,1.2-1.2,1.2l0,0c-0.7,0-1.2-0.6-1.2-1.2v-3.5
	C32,12.6,32.6,12,33.2,12z"/>
<path class="st0" d="M25.2,12L25.2,12c0.7,0,1.2,0.6,1.2,1.2v3.5c0,0.7-0.6,1.2-1.2,1.2l0,0c-0.7,0-1.2-0.6-1.2-1.2v-3.5
	C24,12.6,24.6,12,25.2,12z"/>
<path class="st0" d="M17.2,12L17.2,12c0.7,0,1.2,0.6,1.2,1.2v3.5c0,0.7-0.6,1.2-1.2,1.2l0,0c-0.7,0-1.2-0.6-1.2-1.2v-3.5
	C16,12.6,16.6,12,17.2,12z"/>
<path class="st0" d="M9.2,12L9.2,12c0.7,0,1.2,0.6,1.2,1.2v3.5c0,0.7-0.6,1.2-1.2,1.2l0,0C8.6,18,8,17.4,8,16.8v-3.5
	C8,12.6,8.6,12,9.2,12z"/>
<path class="st0" d="M1.2,12L1.2,12c0.7,0,1.2,0.6,1.2,1.2v3.5c0,0.7-0.6,1.2-1.2,1.2l0,0C0.6,18,0,17.4,0,16.8v-3.5
	C0,12.6,0.6,12,1.2,12z"/>
</svg>
